<?xml version="1.0" encoding="utf-8"?>
<!-- Generator: Adobe Illustrator 16.0.0, SVG Export Plug-In . SVG Version: 6.00 Build 0)  -->
<!DOCTYPE svg PUBLIC "-//W3C//DTD SVG 1.1//EN" "http://www.w3.org/Graphics/SVG/1.1/DTD/svg11.dtd">
<svg version="1.1" id="Layer_1" xmlns="http://www.w3.org/2000/svg" xmlns:xlink="http://www.w3.org/1999/xlink" x="0px" y="0px"
	 width="309.875px" height="97.257px" viewBox="0 0 309.875 97.257" enable-background="new 0 0 309.875 97.257"
	 xml:space="preserve">
<g>
	<g>
		<g>
			<path fill="#7C2913" d="M0,9.745L0,9.745L0,9.745z"/>
			<polygon fill="#7C2913" points="0,9.745 0,9.745 0,9.745 0,9.745 0,9.745 0,9.745 0,9.745 0,9.745 0,9.745 0,9.745 0,9.745 
				0,9.745 0,9.745 0,9.745 0,9.745 0,9.745 0,9.745 0,9.745 0,9.745 0,9.745 0,9.745 0,9.745 0,9.745 0,9.745 0,9.745 0,9.745 
				0,9.745 0,9.745 0,9.745 0,9.745 0,9.745 0,9.745 0,9.745 0,9.745 0,9.745 0,9.745 0,9.745 0,9.745 0,9.745 0,9.745 0,9.745 
				0,9.745 0,9.745 0,9.745 0,9.745 0,9.745 0,9.745 0,9.745 0,9.745 0,9.745 0,9.745 0,9.745 0,9.745 0,9.745 0,9.745 0,9.745 
				0,9.745 0,9.745 0,9.745 0,9.745 0,9.745 0,9.745 0,9.745 0,9.745 0,9.745 0,9.745 0,9.745 0,9.745 0,9.745 0,9.745 0,9.745 
				0,9.745 0,9.745 0,9.745 0,9.745 0,9.745 0,9.745 0,9.745 0,9.745 0,9.745 0,9.745 0,9.745 0,9.745 0,9.745 0,9.745 0,9.745 
				0,9.745 0,9.745 0,9.745 0,9.745 0,9.745 0,9.745 0,9.745 0,9.745 0,9.745 0,9.745 0,9.745 0,9.745 0,9.745 0,9.745 0,9.745 
				0,9.745 0,9.745 0,9.745 0,9.745 0,9.745 0,9.745 0,9.745 0,9.745 0,9.745 0,9.745 0,9.745 0,9.745 0,9.745 0,9.745 0,9.745 
				0,9.745 0,9.745 0,9.745 0,9.745 0,9.745 0,9.745 0,9.745 0,9.745 0,9.745 0,9.745 0,9.745 0,9.745 0,9.745 0,9.745 0,9.745 
				0,9.745 0,9.745 0,9.745 0,9.745 0,9.745 0,9.745 0,9.745 0,9.745 0,9.745 0,9.745 0,9.745 0,9.745 0,9.745 0,9.745 0,9.745 
				0,9.745 0,9.745 0,9.745 0,9.745 0,9.745 0,9.745 0,9.745 0,9.745 0,9.745 0,9.745 0,9.745 0,9.745 0,9.745 0,9.745 0,9.745 
				0,9.745 0,9.745 0,9.745 0,9.745 0,9.745 0,9.745 0,9.745 0,9.745 0,9.745 0,9.745 0,9.745 0,9.745 0,9.745 0,9.745 0,9.745 
				0,9.745 0,9.745 0,9.745 0,9.745 0,9.745 0,9.745 0,9.745 0,9.745 0,9.745 0,9.745 0,9.745 0,9.745 0,9.745 0,9.745 0,9.745 
				0,9.745 0,9.745 0,9.745 0,9.745 0,9.745 0,9.745 0,9.745 0,9.745 0,9.745 0,9.745 0,9.745 0,9.745 0,9.745 0,9.745 0,9.745 
				0,9.745 0,9.745 0,9.745 0,9.745 0,9.745 0,9.745 0,9.745 0,9.745 0,9.745 0,9.745 0,9.745 0,9.745 0,9.745 0,9.745 0,9.745 
				0,9.745 0,9.745 0,9.745 0,9.745 0,9.745 0,9.745 0,9.745 0,9.745 0,9.745 0,9.745 0,9.745 0,9.745 0,9.745 0,9.745 0,9.745 
				0,9.745 0,9.745 0,9.745 0,9.745 0,9.745 0,9.745 0,9.745 0,9.745 0,9.745 0,9.745 0,9.745 0,9.745 0,9.745 0,9.745 0,9.745 
				0,9.745 0,9.745 0,9.745 0,9.745 0,9.745 0,9.745 0,9.745 0,9.745 0,9.745 0,9.745 0,9.745 0,9.745 0,9.745 0,9.745 0,9.745 
				0,9.745 0,9.745 0,9.745 0,9.745 0,9.745 0,9.745 0,9.745 0,9.745 0,9.745 0,9.745 0,9.745 0,9.745 0,9.745 0,9.745 0,9.745 
				0,9.745 0,9.745 0,9.745 0,9.745 0,9.745 0,9.745 0,9.745 0,9.745 0,9.745 0,9.745 0,9.745 0,9.745 0,9.745 0,9.745 0,9.745 
				0,9.745 0,9.745 0,9.745 0,9.745 0,9.745 0,9.745 0,9.745 0,9.745 0,9.745 0,9.745 0,9.745 0,9.745 0,9.745 0,9.745 0,9.745 
				0,9.745 0,9.745 0,9.745 0,9.745 0,9.745 0,9.745 0,9.745 0,9.745 0,9.745 0,9.745 0,9.745 0,9.745 			"/>
			<path fill="#7C2913" d="M0,9.745L0,9.745L0,9.745z"/>
			<polygon fill="#7C2913" points="0,9.745 0,9.745 0,9.745 			"/>
			<path fill="#7C2913" d="M0,9.745L0,9.745L0,9.745z"/>
			<path fill="#7C2913" d="M0,9.745L0,9.745L0,9.745z"/>
			<path fill="#7C2913" d="M0,9.745L0,9.745L0,9.745z"/>
			<path fill="#7C2913" d="M0,9.745L0,9.745L0,9.745z"/>
			<polygon fill="#7C2913" points="0,9.745 0,9.745 0,9.745 			"/>
			<polygon fill="#7C2913" points="0,9.745 0,9.745 0,9.745 			"/>
			<path fill="#7C2913" d="M0,9.745L0,9.745L0,9.745z"/>
			<polygon fill="#7C2913" points="0,9.745 0,9.745 0,9.745 			"/>
		</g>
	</g>
</g>
<g>
	<path fill="#1D71B8" d="M108.839,47.885c-0.971,3.69-2.926,6.646-5.867,8.864c-2.984,2.23-6.48,3.346-10.492,3.346
		c-3.798,0-6.645-0.871-8.543-2.613c-1.898-1.738-2.848-4.35-2.848-7.83c0-3.171,0.899-6.425,2.698-9.757
		c1.798-3.332,4.11-6.033,6.937-8.102c1.984-1.45,4.111-2.175,6.381-2.175c1.384,0,3.269,0.435,5.653,1.3
		c2.826,1.029,4.24,2.125,4.24,3.29c0,0.669-0.293,1.267-0.878,1.794c-0.585,0.526-1.306,0.789-2.162,0.789
		c-0.429,0-1.374-0.35-2.837-1.05s-2.801-1.05-4.015-1.05c-1.285,0-3.019,1.201-5.203,3.605c-3.184,3.493-4.775,7.277-4.775,11.354
		c0,2.068,0.35,3.473,1.049,4.217c0.742,0.779,2.176,1.17,4.304,1.17c2.184,0,4.104-0.537,5.759-1.615
		c1.756-1.141,3.055-2.801,3.897-4.98c-3.312,0.223-6.195,0.811-8.65,1.766c-0.442,0.174-0.885,0.26-1.328,0.26
		c-0.886,0-1.621-0.285-2.206-0.855c-0.528-0.508-0.792-1.084-0.792-1.728c0-1.895,2.583-3.221,7.751-3.977
		c2.912-0.421,6.309-0.631,10.192-0.631c0.856,0,1.574,0.24,2.152,0.725c0.578,0.482,0.867,1.076,0.867,1.783
		C110.124,46.69,109.696,47.39,108.839,47.885z"/>
	<path fill="#EA5B0C" d="M131,48.072c0,0.828,0.008,2.08,0.021,3.752c0.014,1.674,0.022,2.926,0.022,3.754
		c0,0.262,0.025,0.648,0.075,1.162s0.074,0.902,0.074,1.162c0,0.693-0.288,1.266-0.867,1.719c-0.578,0.451-1.288,0.678-2.13,0.678
		c-1.186,0-2.048-0.465-2.591-1.393c-1.827,0.582-3.718,0.873-5.674,0.873c-2.028,0-3.734-0.371-5.118-1.109
		c-1.556-0.85-2.484-2.088-2.784-3.715c-0.556-3.08-0.835-5.836-0.835-8.263c0-1.601,0.215-3.432,0.643-5.489
		c0.285-1.393,1.249-2.088,2.89-2.088c0.828,0,1.535,0.224,2.12,0.673c0.585,0.45,0.878,1.02,0.878,1.707
		c0,0.541-0.104,1.391-0.311,2.547c-0.207,1.156-0.311,2.035-0.311,2.639c0,1.733,0.068,3.249,0.204,4.548
		c0.135,1.297,0.339,2.371,0.61,3.219c0.357,0.137,0.703,0.242,1.039,0.314c0.335,0.074,0.66,0.111,0.975,0.111
		c1.584,0,3.326-0.197,5.225-0.594c0-0.955-0.007-2.039-0.022-3.254c-0.029-1.449-0.042-2.49-0.042-3.12
		c0-2.539,0.135-4.732,0.406-6.579c0.215-1.474,1.185-2.211,2.913-2.211c0.842,0,1.563,0.229,2.162,0.688
		c0.6,0.458,0.878,1.034,0.835,1.728C131.137,46.25,131,48.429,131,48.072z"/>
	<path fill="#E30613" d="M153.526,59.833c-0.657,0-1.699-0.551-3.125-1.654c-1.314,0.547-2.47,0.957-3.469,1.236
		c-1,0.279-1.849,0.418-2.549,0.418c-3.439,0-6.02-0.799-7.739-2.396c-1.721-1.598-2.581-3.99-2.581-7.174
		c0-2.984,1.271-5.54,3.812-7.665c2.541-2.123,5.582-3.187,9.122-3.187c1.356,0,2.925,0.332,4.71,0.994
		c2.155,0.797,3.234,1.724,3.234,2.778c0,0.441-0.165,0.827-0.493,1.159c-0.143,0.49-0.253,1.106-0.333,1.849
		c-0.078,0.742-0.118,1.609-0.118,2.603c0,2.344,0.193,4.029,0.579,5.061c0.043,0.109,0.371,0.748,0.985,1.912
		c0.557,1.057,0.835,1.656,0.835,1.805c0,0.648-0.289,1.189-0.868,1.619C154.95,59.619,154.283,59.833,153.526,59.833z
		 M148.215,47.292c0-0.396,0.032-0.852,0.097-1.366c0.063-0.515,0.16-1.087,0.289-1.72c-0.286-0.123-0.54-0.213-0.76-0.269
		c-0.222-0.056-0.411-0.083-0.568-0.083c-1.941,0-3.64,0.658-5.095,1.979c-1.457,1.319-2.185,2.845-2.185,4.579
		c0,1.662,0.343,2.91,1.029,3.744c0.684,0.838,1.713,1.256,3.083,1.256c0.885,0,1.724-0.127,2.516-0.381s1.539-0.629,2.238-1.125
		C148.43,50.957,148.215,48.751,148.215,47.292z"/>
	<path fill="#3AAA35" d="M174.531,43.854c-0.301,0-0.653-0.01-1.061-0.028s-0.76-0.028-1.06-0.028c-0.586,0-1.264,0.049-2.034,0.148
		c0.257,5.005,0.386,8.274,0.386,9.812c0,0.16,0.008,0.461,0.021,0.9c0.015,0.441,0.022,0.797,0.022,1.07
		c0,2.85-1.035,4.273-3.105,4.273c-0.784,0-1.463-0.211-2.033-0.633c-0.629-0.445-0.943-1.004-0.943-1.672
		c0-0.445,0.022-1.115,0.064-2.006c0.043-0.893,0.064-1.562,0.064-2.008c0-1.5-0.129-4.707-0.386-9.626
		c-0.884-0.037-2.223-0.139-4.015-0.306c-1.791-0.168-2.688-0.97-2.688-2.406c0-0.694,0.272-1.283,0.814-1.767
		c0.543-0.482,1.242-0.725,2.099-0.725c0.528,0,1.741,0.074,3.641,0.223c-0.015-0.396-0.052-1.052-0.107-1.969
		c-0.058-0.793-0.087-1.406-0.087-1.84c0-0.693,0.293-1.27,0.879-1.729c0.586-0.458,1.291-0.688,2.119-0.688
		c2.112,0,3.17,1.543,3.17,4.627l-0.045,1.523c0.887-0.111,1.607-0.166,2.164-0.166c1.641,0,2.762,0.092,3.361,0.278
		c1.143,0.347,1.713,1.103,1.713,2.267c0,0.707-0.277,1.295-0.834,1.766S175.387,43.854,174.531,43.854z"/>
	<path fill="#E6007E" d="M190.868,59.667c-3.412,0-6.203-0.707-8.372-2.119c-2.397-1.561-3.597-3.76-3.597-6.598
		c0-3.134,0.949-5.784,2.847-7.952c2.113-2.404,4.96-3.605,8.544-3.605c2.483,0,4.547,0.347,6.188,1.041
		c2.156,0.916,3.233,2.342,3.233,4.274c0,1.362-0.878,2.57-2.634,3.624c-0.799,0.481-2.405,1.188-4.817,2.116l-7.216,2.77
		c0.686,0.645,1.514,1.127,2.484,1.449s2.084,0.484,3.34,0.484c1.913,0,3.533-0.342,4.859-1.023c1.186-0.605,2.135-0.91,2.85-0.91
		c1.483,0,2.227,0.625,2.227,1.877c0,1.412-1.192,2.564-3.576,3.457C195.229,59.294,193.108,59.667,190.868,59.667z M190.29,43.891
		c-1.328,0-2.462,0.383-3.404,1.151s-1.699,1.921-2.27,3.455c1.613-0.605,3.219-1.206,4.817-1.802
		c1.927-0.755,3.462-1.455,4.604-2.1C193.081,44.125,191.831,43.891,190.29,43.891z"/>
	<path fill="#1D71B8" d="M210.867,50.58l-0.021,7.824c0,0.545-0.18,1.047-0.536,1.504c-0.501,0.633-1.228,0.947-2.185,0.947
		c-1.128,0-2.012-0.396-2.654-1.188c-0.501-0.621-0.75-1.283-0.75-1.988c0-2.752,0.099-6.883,0.3-12.395
		c0.199-5.513,0.3-9.646,0.3-12.396c0-0.693,0.285-1.289,0.856-1.784c0.57-0.495,1.284-0.743,2.142-0.743
		c0.855,0,1.566,0.248,2.129,0.743c0.564,0.495,0.846,1.091,0.846,1.784c0,1.115-0.062,2.621-0.191,4.516
		c-0.158,2.205-0.25,3.711-0.277,4.516c0.998-0.818,4.701-4.262,11.112-10.332c0.655-0.619,1.413-0.929,2.27-0.929
		c0.813,0,1.523,0.247,2.128,0.743c0.607,0.495,0.913,1.096,0.913,1.803c0,0.768-1.7,2.762-5.097,5.982
		c-2.513,2.367-5.16,4.703-7.944,7.007c1.556,1.276,3.118,2.551,4.689,3.826c1.827,1.463,3.469,2.666,4.925,3.605
		c0.729,0.459,1.513,0.807,2.355,1.041c1.526,0.422,2.291,1.232,2.291,2.434c0,0.533-0.192,1.049-0.578,1.543
		c-0.529,0.67-1.264,1.004-2.205,1.004c-2.043,0-4.689-1.158-7.944-3.475C216.77,55.48,214.479,53.615,210.867,50.58z"/>
	<path fill="#3AAA35" d="M259.343,40.137c0.187-4.225,0.407-7.143,0.665-8.753c0.242-1.462,1.17-2.192,2.782-2.192
		c0.844,0,1.521,0.236,2.035,0.713c0.514,0.475,0.771,1.057,0.771,1.745c0,1.813-0.161,4.517-0.481,8.106
		c-0.321,3.59-0.482,6.293-0.482,8.106c0,4.43,0.164,7.393,0.492,8.895c0.044,0.201,0.064,0.383,0.064,0.545
		c0,0.688-0.285,1.254-0.855,1.697c-0.572,0.445-1.235,0.668-1.992,0.668c-1.057,0-1.841-0.41-2.355-1.227
		c-0.971,0.508-1.976,0.838-3.02,0.994c-1.041,0.154-2.119,0.232-3.232,0.232c-3.197,0-5.853-0.887-7.967-2.658
		c-2.153-1.809-3.23-4.113-3.23-6.912c0-3.333,1.083-6.024,3.254-8.075c2.17-2.049,5.003-3.074,8.5-3.074
		c1.071,0,2.027,0.1,2.869,0.297C258.001,39.443,258.729,39.74,259.343,40.137z M258.915,45.991
		c-0.471-0.781-1.085-1.363-1.842-1.747c-0.756-0.384-1.655-0.575-2.697-0.575c-2.113,0-3.696,0.529-4.753,1.588
		c-1.058,1.059-1.585,2.648-1.585,4.765c0,1.34,0.571,2.484,1.713,3.439c1.142,0.953,2.47,1.43,3.982,1.43
		c1.099,0,1.935-0.111,2.505-0.334c0.386-0.148,1.043-0.545,1.971-1.189c0.241-0.174,0.478-0.365,0.706-0.576
		C258.888,52.197,258.888,49.929,258.915,45.991z"/>
	<path fill="#662483" d="M238.127,50.097c0,0.705,0.024,1.84,0.074,3.4s0.076,2.693,0.076,3.4c0,0.719-0.28,1.311-0.835,1.773
		c-0.558,0.465-1.265,0.697-2.121,0.697c-0.855,0-1.563-0.232-2.119-0.697c-0.558-0.463-0.835-1.055-0.835-1.773
		c0-0.707-0.025-1.84-0.075-3.4c-0.051-1.561-0.075-2.695-0.075-3.4c0-1.104,0.071-2.483,0.214-4.145
		c0.143-1.659,0.214-3.04,0.214-4.144c0-0.719,0.278-1.311,0.836-1.774c0.556-0.464,1.263-0.696,2.12-0.696
		c0.855,0,1.562,0.232,2.119,0.696c0.558,0.464,0.835,1.056,0.835,1.774c0,1.104-0.071,2.484-0.214,4.144
		C238.198,47.614,238.127,48.994,238.127,50.097z"/>
	<path fill="#EA5B0C" d="M287.843,44.616c-1.213,1.189-2.678,2.794-4.39,4.812c-2.384,2.799-5.229,5.635-4.454,5.166
		c-0.391,0.236,1.922,0.195,2.486,0.236c1.165,0.086,1.312,0.01,2.424,0.033c1.346,0.027,2.42,0.197,2.89,0.197
		c3.299,0,2.307,3.299,2.307,2.488c0-0.088-0.005,0.174-0.013,0.258c-0.016,0.162-0.049,0.316-0.098,0.465
		c-0.038,0.113-0.084,0.221-0.139,0.324c-0.138,0.26-0.334,0.492-0.586,0.699c-0.178,0.146-0.374,0.271-0.585,0.371
		c-0.446,0.211-0.842,0.246-1.42,0.141c-0.616-0.113-1.478-0.178-2.606-0.291c-1.109-0.113-1.941-0.053-2.498-0.053
		c-3.196,0-6.187,0.229-8.971,0.688c-0.371,0.062-0.685,0.092-0.942,0.092c-0.784,0-1.456-0.186-2.013-0.557
		c-0.628-0.408-0.941-0.947-0.941-1.617c0-0.793,0.449-1.518,1.348-2.174c3.556-2.613,7.274-6.436,11.156-11.465
		c-0.885,0.037-1.734,0.056-2.549,0.056c-2.183,0-4.396-0.136-6.637-0.409c-1.756-0.21-2.633-1.015-2.633-2.415
		c0-0.681,0.27-1.264,0.812-1.746c0.543-0.483,1.235-0.727,2.077-0.727c0.699,0,1.759,0.066,3.181,0.196
		c1.42,0.13,2.486,0.194,3.199,0.194c0.973,0,2.429-0.053,4.369-0.157c1.941-0.104,3.396-0.158,4.368-0.158
		c1.784,0,2.677,0.632,2.677,1.896C289.663,42.274,289.056,43.426,287.843,44.616z"/>
	<g id="XMLID_2_">
		<g>
			<path fill="#EA5B0C" d="M309.489,74.152c0.727,5.652-1.484,12.555-6.217,17.04c-3.846,3.652-9.06,5.784-13.988,5.815
				c-5.668,0.035-11.111-2.092-12.871-7.7c-1.531-4.841-0.119-11.569,5.068-14.63c2.055-1.218,5.449-2.228,8.366-1.757
				c2.021,0.332,3.806,1.378,4.735,3.574c0.434,1.016,1.361,3.501,0.352,5.845c-0.832,1.923-3.721,4.49-6.418,3.28
				c-3.182-1.44-1.618-6.203,1.296-6.067c0.074,0.247,0.155,0.5,0.201,0.585c0.072,1.178-0.316,0.727,0.897-0.3
				c-0.377-0.172-0.751-0.262-1.099-0.285c-0.087-0.259-0.175-0.525-0.227-0.609c-0.587-0.934-1.46-1.41-2.621-1.436
				c-0.446,0.054-2.65-0.297-4.866,2.6c-2.573,3.395-1.805,8.359,1.239,10.511c5.665,3.997,13.406,1.673,17.11-2.692
				c5.831-6.844,5.362-15.06,0.938-21.155c-2.308-3.176-6.595-6.201-17.052-7.325l-0.866-0.079c-1.892-2.043-2.323-4.209-0.009-4.32
				C285.964,54.923,306.757,53.196,309.489,74.152z"/>
			<path fill="#EA5B0C" d="M290.911,79.837c-1.214,1.026-0.825,1.478-0.897,0.3c-0.046-0.085-0.127-0.338-0.201-0.585
				C290.16,79.576,290.534,79.666,290.911,79.837z"/>
		</g>
		<g>
		</g>
	</g>
	<g>
		<path fill="#E9580D" d="M18.35,19.981c6.923,5.644,11.404,9.283,18.654,9.822c4.759,0.366,13.092-9.198,15.78-12.365
			c-3.67,6.808-9.254,12.348-10.119,20.34c-0.714,7.144,5.465,13.185,6.74,19.925c-0.516-3.279-4.852-11.372-8.737-12.032
			c-6.394-1.037-7.298,10.481-8.808,13.751c0.108-0.385,2.754-12.801,0.835-21.249C31.543,33.107,21.191,21.921,18.35,19.981z"/>
		<g>
			<path fill="#EA550D" d="M16.1,21.594c6.337,5.156,14.11,11.635,22.93,9.904c6.472-1.27,12.142-8.582,16.157-13.289
				c-1.719-0.348-3.438-0.696-5.158-1.043c-3.875,6.882-9.09,12.813-10.292,20.864c-1.087,7.279,5.175,13.71,6.769,20.448
				c0.603,2.547,6.357,1.033,5.796-1.553c-1.206-5.553-6.741-15.556-13.896-13.077c-6.993,2.422-6.912,9.399-9.302,15.302
				c1.894,0.006,3.788,0.014,5.682,0.02c1.635-6.955,2.982-16.417,0.308-23.224c-2.552-6.494-8.918-13.457-14.495-17.578
				C18.656,16.933,13.5,19.672,16.1,21.594c5.23,3.863,11.109,10.589,13.496,16.66c2.389,6.079,0.803,15.179-0.664,21.419
				c-0.625,2.658,4.931,1.875,5.682,0.02c1.364-3.367,1.79-7,3.379-10.301c1.566-3.249,3.426-0.418,4.919,1.504
				c1.703,2.191,3.004,4.869,3.593,7.582c1.932-0.518,3.864-1.035,5.796-1.553c-1.584-6.695-6.984-12.29-6.71-19.399
				c0.281-7.32,6.527-13.742,9.947-19.816c1.558-2.768-3.95-2.46-5.158-1.043c-3.106,3.643-6.361,7.212-10.272,10.006
				c-5.883,4.2-15.235-4.826-19.509-8.305C18.726,16.843,13.577,19.542,16.1,21.594z"/>
		</g>
	</g>
	<g>
		<path fill="none" stroke="#000000" stroke-width="8" d="M27.039,7.296"/>
		<g>
			<path fill="#8F3A17" d="M34.27,0.943c-12.643,0.535-5.928,23.919,3.803,20.858c10.754-3.138,1.417-24.765-4.144-20.834"/>
			<g>
				<path fill="#8F3A17" d="M34.396,0.387c-13.145,1.078-8.565,23.89,2.946,22.128c13.045-1.996,4.374-26.846-4.018-21.853
					C32.2,1.33,33.888,1.657,34.533,1.273c3.098-1.843,6.312,6.683,6.837,8.448c1.253,4.209,0.978,12.763-5.634,11.691
					c-7.869-1.276-11.242-19.122-1.592-19.913C35.11,1.42,35.732,0.277,34.396,0.387L34.396,0.387z"/>
			</g>
		</g>
		<g>
			<g>
				<g>
					<path fill="#571C05" d="M33.026,0.813c-0.096-0.017-0.121,0.207-0.104,0.036C32.999,0.777,33.063,0.729,33.026,0.813z"/>
					<path fill="#571C05" d="M38.797,21.526c-0.686-0.261,0.008-0.605-0.43-0.891c-0.029-0.033,0.376,0.008,0.286-0.068
						c-0.533-0.275-0.215-0.713,0.197-1.053l0.106,0.021c0.077-0.065-0.275-0.143-0.226-0.211l0.197,0.006
						c-0.212-0.017-0.098-0.123-0.256-0.151l0.345-0.061l-0.242-0.038c-0.575-0.106,0.035-0.265-0.264-0.411l0.155,0.009
						c-0.354-0.235-0.295-0.532-0.429-0.795l0.338-0.002c-0.255-0.008-0.321-0.089-0.373-0.159c0.261-0.038-0.242-0.116-0.099-0.203
						l0.058,0.006c-0.275-0.055,0.156-0.095-0.173-0.137l0.205-0.044c-0.37-0.017,0.189-0.094,0-0.14l-0.075,0.004
						c-0.091-0.045,0.094-0.076,0.031-0.118l0.042-0.005c-0.099-0.101,0.106-0.168-0.182-0.156c0.23-0.044,0.107,0.097,0.442,0.029
						c-0.306-0.333-0.244-0.688-0.285-1.031l0.254-0.086c-0.061-0.032-0.062-0.127-0.212-0.15c0.007,0.011,0.146-0.031,0.158-0.05
						c0.104-0.07-0.321-0.049-0.197-0.126l0.278,0.01c-0.229-0.045-0.199-0.125-0.277-0.189l0.169,0.013
						c-0.26-0.058,0.043-0.142-0.123-0.197l0.167,0.013c0.194-0.122-0.349-0.006-0.237-0.107l0.187,0.005
						c-0.308-0.064-0.219-0.21-0.328-0.288l0.069-0.002c-0.045-0.09,0.042-0.196-0.098-0.287c0.07-0.044,0.405-0.025,0.336-0.119
						c-0.333,0.035-0.149-0.156-0.521-0.061c0.048-0.089,0.163-0.235,0.046-0.279c0.129,0.025,0.402-0.084,0.436-0.016l0.198-0.075
						c0.136-0.006-0.042,0.06,0.128,0.025c-0.017-0.034-0.156-0.124-0.104-0.162c-0.208-0.044-0.593-0.062-0.643-0.162
						c0.133,0.035,0.364-0.07,0.423-0.043l-0.654-0.071c-0.021-0.032,0.26-0.039,0.166-0.078l-0.219-0.008
						c0.036-0.018-0.106-0.131,0.217-0.188c0.125-0.032,0.078,0.047,0.188-0.006l-0.143-0.115l0.043-0.007
						c0.042-0.049-0.16-0.105-0.332-0.035c-0.005,0.03,0.194-0.038,0.106,0.018c-0.194-0.003-0.259-0.069-0.273-0.131l0.236-0.005
						c-0.27-0.048-0.366-0.125-0.489-0.202c-0.155,0.022,0.288-0.008,0.208,0.018c0.194-0.155-0.346-0.2-0.049-0.351
						c0.03,0.012-0.218,0.045-0.175,0.037c0.009-0.061,0.233-0.096,0.145-0.12c0.13-0.026-0.05-0.041-0.097-0.072
						c-0.098-0.004,0.062-0.021,0.082,0.01c-0.12-0.036-0.357-0.214-0.188-0.374c-0.086,0.019-0.33-0.016-0.325-0.046l0.204-0.028
						c0.117-0.05-0.033-0.093,0.139-0.131c-0.255-0.014,0.249,0.196,0.045,0.15c0.165-0.054-0.341-0.054-0.063-0.089
						c-0.018-0.057-0.253-0.067-0.074-0.16c-0.03,0.022,0.288-0.009,0.265-0.053c-0.05-0.076-0.101-0.004-0.179-0.057l-0.09-0.025
						c-0.196,0.038,0.015-0.079-0.2-0.002c0.16-0.044-0.12-0.097,0.207-0.158l0.258-0.043c-0.025-0.032-0.28,0-0.396-0.004
						l0.114-0.037c-0.393,0.08,0.019-0.092-0.291-0.067c0.128-0.105-0.031-0.187,0.203-0.277c-0.134-0.028-0.289-0.045-0.223-0.128
						l0.141,0.001c0.103-0.067-0.002-0.052-0.076-0.073c0.061-0.006,0.206-0.135,0.33-0.214c-0.132-0.027-0.336,0.045-0.466,0.071
						c0.369-0.147-0.292-0.092,0.038-0.244c0.058,0.005,0.211,0.032,0.294-0.039c0.367-0.15-0.312-0.029-0.151-0.159l-0.311,0.104
						c0.186-0.088-0.218-0.069,0.107-0.148c-0.122,0.003,0.078-0.125-0.229-0.031c0.223-0.206-0.249-0.276,0.279-0.519
						C36.54,9.5,36.578,9.437,36.423,9.493c-0.162,0.083,0.135,0.009,0.022,0.055l-0.142,0.017c0.058-0.062,0.071-0.101,0.337-0.137
						c0.163-0.15-0.549,0.06-0.462-0.093c0.128-0.034,0.174-0.057,0.144-0.085l-0.235,0.002c0.029-0.091,0.276-0.133,0.489-0.201
						c-0.049-0.03-0.053-0.083-0.217-0.051l0.254-0.135c-0.183,0.098-0.139,0.007-0.196,0.005l0.057,0.002
						c0.089-0.037,0.02-0.066-0.014-0.082c-0.13,0.049-0.17,0.114-0.201,0.153c-0.1,0.009-0.087-0.03-0.205-0.021
						c0.211-0.059,0.13-0.115,0.143-0.154c0.035-0.052-0.199,0.02-0.195,0.007c0.108-0.037,0.001-0.066,0.162-0.088
						c0.039,0.001-0.097,0.063,0.004,0.053c0.074-0.051,0.263-0.111,0.111-0.117c-0.114-0.003-0.409,0.147-0.298,0.032l0.221-0.034
						l0.089-0.104l-0.191,0.061l0.088-0.037c-0.206,0.047-0.091-0.083-0.32-0.021c-0.027-0.028,0.105-0.115,0.115-0.154l0.019,0
						c0.095-0.077,0.001-0.103-0.14-0.088l0.042-0.013c0.006-0.026-0.044-0.064-0.166-0.05c0.121-0.103,0.704-0.276,0.442-0.248
						c-0.029-0.052-0.38,0.043-0.491,0.109c0.087-0.143-0.264-0.133-0.01-0.333l-0.181,0.032c0.015-0.169-0.342-0.203-0.024-0.463
						c0.095,0.008,0.186-0.074,0.292-0.119c-0.18,0.035,0.155-0.112-0.134-0.006c-0.166,0.073-0.248,0.104-0.299,0.17
						c-0.125-0.045-0.176-0.17-0.041-0.283l-0.183,0.063c0.268-0.108,0.282-0.187,0.169-0.193l-0.164,0.064l0.153-0.103
						c-0.059,0.004-0.346,0.129-0.21,0.015l0.166-0.09c-0.152,0.01-0.402,0.044-0.288-0.069l0.216-0.149
						c-0.035-0.011-0.191,0.017-0.242,0.086c0.104-0.153,0.098-0.218,0.288-0.341c-0.56,0.081-0.648-0.138-0.713-0.312l0.12-0.055
						c0.083-0.099-0.219,0.082-0.155,0.011l0.381-0.194c0.085-0.126-0.252,0.024-0.329,0.013c-0.157,0.074,0.118-0.02-0.082,0.075
						c-0.059,0.022,0.068-0.148-0.169-0.035l0.358-0.183l-0.136,0.022c0.241-0.191,0.548-0.149,0.852-0.375l-0.059-0.018
						c0.221-0.165,0.333-0.046,0.359-0.184c-0.139,0.019-0.494,0.165-0.575,0.255c-0.113-0.048-0.573,0.258-0.604,0.163
						c0.121-0.097,0.073,0.05,0.253-0.069c0.161-0.141-0.153-0.025-0.11-0.096c-0.062,0.087-0.314,0.181-0.372,0.18
						c0.083-0.103,0.234-0.092,0.221-0.167c-0.138,0.063-0.271,0.063-0.334,0.163c-0.312,0.146,0.045-0.109-0.206-0.011
						c0.197-0.139,0.522-0.212,0.586-0.34c-0.195,0.125-0.324,0.074-0.602,0.281c0.043-0.059,0.199-0.153,0.334-0.205
						c0.101-0.11-0.42,0.123-0.03-0.122l-0.212,0.107l0.198-0.181c-0.016-0.036-0.34,0.059-0.031-0.123
						c-0.038,0.008-0.07-0.076-0.264,0.083C33.774,5.165,34.063,5,33.792,5.199c0.214-0.173-0.071-0.048-0.165-0.026l0.116-0.077
						c-0.056,0.013-0.052-0.04-0.186,0.029l0.173-0.116l-0.189,0.095c-0.127-0.008,0.306-0.211,0.216-0.242l0.167-0.039
						c-0.036,0.008,0.119-0.119,0.044-0.114c-0.17,0.09-0.378,0.192-0.51,0.262c-0.092,0.011,0.173-0.132-0.014-0.06l0.223-0.08
						c0.058-0.027,0.25-0.202,0.216-0.248c-0.075,0.005-0.335,0.109-0.396,0.214c-0.017-0.021,0.062-0.119,0.191-0.177
						c-0.088-0.018-0.17,0.121-0.297,0.14c0.096-0.089,0.214-0.249,0.347-0.389l0.298-0.129l-0.018-0.035
						c0.241-0.099,0.15-0.131,0.392-0.258c0.021-0.047-0.073-0.024-0.146-0.007c-0.322,0.311-0.539,0.258-0.855,0.501
						c-0.142-0.025,0.763-0.604,0.195-0.344c-0.076,0.075-0.35,0.204-0.222,0.194c0.002-0.08-0.35,0.191-0.252,0.033
						c0.162-0.046,0.298-0.284,0.534-0.351c-0.111,0.071-0.059,0.097-0.022,0.087c0.111-0.111,0.332-0.224,0.296-0.283
						c-0.052-0.015-0.088-0.059-0.253,0.068c-0.185,0.133,0.052,0.04-0.149,0.15c-0.105-0.023,0.168-0.238-0.177-0.03
						c0.052,0.025-0.132,0.172-0.26,0.263l-0.106,0.006l0.128-0.079c0.039-0.141-0.231,0.131-0.253,0.043l0.213-0.207
						c0.225-0.141-0.011,0.164,0.316-0.092c-0.015-0.064-0.207,0.056-0.154-0.05l0.095-0.02c-0.002-0.022,0.429-0.37,0.111-0.238
						c-0.13,0.044-0.127,0.082-0.252,0.175c-0.101-0.039-0.246,0.039-0.304,0.012c0.249-0.18-0.047-0.095,0.243-0.241
						c-0.12,0.134-0.018,0.218,0.238,0.067c0.266-0.245,0.01,0.085,0.317-0.12c-0.045-0.062,0.242-0.275,0.419-0.426
						c-0.002-0.027-0.096,0.017-0.133,0.029c-0.182,0.127-0.159,0.146-0.338,0.285c-0.011-0.101-0.166-0.088-0.365,0.011
						c0.066-0.089,0.244-0.22,0.284-0.207c-0.122-0.037-0.172-0.137-0.188-0.253c-0.232,0.278-0.138-0.026-0.336,0.199
						c-0.026,0.091-0.194,0.287-0.335,0.37c-0.003-0.038,0.121-0.101,0.171-0.16c-0.176,0.098,0.197-0.25-0.064-0.078
						c0.149-0.009,0.345-0.271,0.569-0.442c-0.167,0.051,0.154-0.128,0.107-0.18c-0.166,0.05-0.314,0.069-0.411,0.054
						c0.133-0.25-0.16-0.184-0.224-0.238c0.073-0.132,0.322-0.33,0.328-0.406c-0.044-0.04-0.217,0.271-0.17,0.105l0.051-0.038
						c-0.07,0.033,0.045-0.272-0.294,0.034l0.261-0.225c0.011-0.035-0.055,0.01-0.089,0.026l0.207-0.2
						c0.129-0.21-0.104-0.06-0.15-0.096l-0.116,0.175c-0.177,0.042-0.083-0.155-0.197-0.175l0.137-0.145l-0.12,0.044
						c0.14-0.132,0.188-0.265,0.058-0.168l0.435-0.245c-0.051,0.119-0.196,0.142-0.311,0.307c-0.102,0.144-0.004,0.17,0.138,0.042
						c-0.009-0.042-0.04-0.012-0.107,0.021c0.181-0.212,0.21-0.164,0.356-0.278c-0.021-0.006,0.019-0.088-0.044-0.026
						c0.118-0.071,0.158-0.058,0.206-0.016C33.31,1.235,33.31,1.33,33.244,1.375c0.172-0.173,0.266-0.182,0.271-0.075
						c-0.162,0.242,0.227-0.021,0.234,0.104c-0.202,0.146-0.374,0.251-0.48,0.283c-0.051,0.128,0.046,0.041-0.006,0.168
						c0.149-0.11,0.364-0.293,0.496-0.316l-0.129,0.13c0.112-0.016,0.308-0.202,0.33-0.102c0.034,0.171,0.136,0.283,0.194,0.382
						l-0.134,0.123c0.336-0.21,0.248,0.06,0.437,0.011c-0.04,0.218,0.347,0.125,0.149,0.375c0.285,0.098,0.547,0.188,0.613,0.458
						l-0.24,0.115c0.184-0.072-0.109,0.114-0.054,0.129c0.146-0.166,0.258-0.104,0.409-0.168c-0.11,0.216,0.152,0.216,0.362,0.204
						L35.546,3.3c0.341-0.098,0.155,0.176,0.174,0.316c-0.056,0.053-0.189,0.164-0.152,0.186c0.287-0.096,0.288-0.053,0.5-0.059
						c0.04,0.066,0.042,0.21-0.019,0.334c0.508,0.04,0.429,0.424,0.804,0.566l-0.179,0.118c0.579,0.036,0.314,0.562,0.63,0.685
						L36.962,5.58c-0.073,0.118,0.154,0.121,0.383-0.006c-0.072,0.118,0.237,0.106-0.019,0.275C37.295,5.95,37.52,5.87,37.59,5.912
						c-0.066,0.203-0.015,0.244,0.107,0.356l0.006-0.043c-0.081,0.016-0.225,0.075-0.232,0.119c0.115,0.012-0.012,0.227,0.371,0.008
						c-0.173,0.243,0.336,0.272,0.079,0.541c0.106-0.055,0.143-0.027,0.225-0.041c0.06,0.13-0.112,0.352,0.122,0.386
						c-0.047,0.041-0.205,0.037-0.195,0.094l0.226-0.037c0.308,0.137-0.047,0.508,0.057,0.688c0.321,0.28,0.315,0.687,0.449,1.014
						L38.72,9.018c0.355,0.022-0.256,0.357,0.257,0.313c-0.073,0.049-0.009,0.113-0.179,0.137c0.255,0.03-0.145,0.308,0.184,0.363
						l-0.055-0.021c-0.151,0.179,0.139,0.23,0.008,0.411l-0.161-0.008c-0.149,0.092,0.396,0.041-0.008,0.167
						c0.012,0.029,0.213-0.027,0.196-0.043c-0.065,0.337,0.224,0.615,0.384,0.921c-0.209,0.281-0.698,0.15-0.356,0.272
						c-0.078,0.03,0.161-0.02,0.075,0c0.128,0.049-0.446,0.195-0.221,0.203c0.253-0.066,0.149,0.006,0.305-0.021
						c-0.142,0.171-0.369,0.238-0.155,0.315l-0.137,0.015c0.403,0.065,0.224,0.25,0.684,0.291c0.224,0.716,0.546,1.388,0.636,2.095
						c-0.04,0.706,0.242,1.396,0.018,2.106c-0.356,0.177-0.346,0.188-0.196,0.363l-0.127-0.002c0.295,0,0.031,0.125,0.312,0.134
						c-0.049,0.26,0.036,0.496,0.043,0.761c-0.033-0.041-0.274-0.057-0.253-0.008l0.189,0.048l-0.083,0.01
						c0.045,0.033,0.191,0.068,0.286,0.031c0.271,0.67-0.31,1.331-0.243,1.963c-0.123,0.152-0.011,0.368,0.05,0.533
						c-0.395,0.489-0.712,0.931-0.438,1.427C39.735,21.795,38.973,21.731,38.797,21.526z"/>
					<path fill="#571C05" d="M33.114,0.866c-0.086,0.124-0.101,0.227-0.264,0.339L33.114,0.866z"/>
					<path fill="#571C05" d="M33.03,3.03c0.034-0.027-0.032,0.054-0.047,0.073c-0.02-0.005-0.124,0.064-0.076,0.004L33.03,3.03z"/>
					<path fill="#571C05" d="M33.2,3.347c-0.106,0.078-0.237,0.09-0.278,0.068L33.2,3.347z"/>
					<path fill="#571C05" d="M32.99,3.915c-0.07,0.086-0.124,0.118-0.145,0.089L32.99,3.915z"/>
					<path fill="#571C05" d="M33.244,3.751c0.021,0.018-0.032,0.074-0.084,0.128C33.25,3.811,33.062,3.877,33.244,3.751z"/>
					<path fill="#571C05" d="M33.321,4.558c0.017,0.009,0.126-0.021,0.013,0.074C33.41,4.56,33.155,4.654,33.321,4.558z"/>
					<polygon fill="#571C05" points="33.655,4.731 33.672,4.753 33.522,4.829 					"/>
					<polygon fill="#571C05" points="36.547,10.238 36.474,10.218 36.601,10.19 					"/>
					<path fill="#571C05" d="M37.109,12.973c0.088,0.025-0.117,0.043-0.135,0.052C36.954,12.993,37.136,13.014,37.109,12.973z"/>
					<polygon fill="#571C05" points="37.94,14.417 37.936,14.405 38.204,14.384 					"/>
				</g>
			</g>
		</g>
		<g>
			<g>
				<g>
					<path fill="#571C05" d="M34.128,1.302c-0.048-0.09-0.233,0.007-0.094-0.069C34.138,1.261,34.215,1.289,34.128,1.302z"/>
					<path fill="#571C05" d="M39.098,21.338c-0.446,0.549-0.523-0.201-0.977,0.056c-0.042,0.002,0.211-0.31,0.106-0.282
						c-0.509,0.263-0.711-0.328-0.633-0.799l0.092-0.06c0.018-0.093-0.287,0.075-0.292-0.01l0.153-0.124
						c-0.171,0.125-0.146-0.031-0.284,0.047l0.233-0.262l-0.211,0.121c-0.519,0.267-0.124-0.23-0.451-0.173l0.133-0.08
						c-0.445,0.018-0.542-0.293-0.777-0.476l0.298-0.156c-0.229,0.11-0.326,0.065-0.406,0.022c0.217-0.148-0.273-0.005-0.187-0.148
						l0.056-0.019c-0.278,0.061,0.098-0.153-0.224-0.06l0.167-0.124c-0.349,0.128,0.127-0.163-0.058-0.136l-0.069,0.032
						c-0.1-0.012,0.062-0.109-0.011-0.129l0.037-0.021c-0.126-0.065,0.043-0.203-0.223-0.092c0.201-0.123,0.133,0.06,0.424-0.124
						c-0.393-0.219-0.465-0.594-0.589-0.928l0.224-0.146c-0.068-0.016-0.095-0.109-0.242-0.101c0.009,0.01,0.136-0.063,0.145-0.085
						c0.088-0.092-0.322,0.019-0.216-0.084l0.273-0.048c-0.231,0.003-0.217-0.084-0.305-0.134l0.168-0.021
						c-0.265-0.007,0.016-0.151-0.156-0.174l0.167-0.02c0.167-0.159-0.344,0.061-0.252-0.062l0.184-0.031
						c-0.314-0.006-0.253-0.171-0.375-0.231l0.067-0.014c-0.061-0.084,0.005-0.205-0.15-0.275c0.062-0.056,0.396-0.088,0.312-0.171
						c-0.323,0.085-0.177-0.134-0.528,0.016c0.03-0.095,0.116-0.257-0.009-0.284c0.132,0.005,0.383-0.144,0.429-0.082l0.182-0.104
						c0.134-0.027-0.03,0.066,0.132,0.006c-0.023-0.032-0.179-0.101-0.135-0.146c-0.216-0.012-0.601,0.03-0.67-0.061
						c0.139,0.014,0.347-0.127,0.411-0.109l-0.656,0.03c-0.024-0.029,0.251-0.08,0.154-0.105l-0.216,0.026
						c0.034-0.024-0.118-0.118,0.193-0.226c0.119-0.052,0.081,0.036,0.184-0.035l-0.152-0.095l0.042-0.014
						c0.035-0.057-0.168-0.083-0.329,0.016c-0.002,0.032,0.186-0.069,0.106,0.002c-0.19,0.026-0.262-0.03-0.282-0.091l0.231-0.042
						c-0.27-0.007-0.37-0.073-0.51-0.123c-0.149,0.047,0.284-0.057,0.21-0.018c0.161-0.183-0.382-0.131-0.12-0.328
						c0.032,0.006-0.206,0.083-0.165,0.067c-0.003-0.06,0.211-0.135,0.119-0.141c0.124-0.049-0.058-0.03-0.11-0.051
						c-0.097,0.015,0.057-0.033,0.083-0.006c-0.126-0.013-0.394-0.135-0.259-0.323c-0.081,0.035-0.326,0.053-0.327,0.024l0.194-0.07
						c0.104-0.072-0.051-0.081,0.109-0.155c-0.252,0.041,0.282,0.137,0.075,0.135c0.15-0.087-0.344,0.02-0.08-0.072
						c-0.028-0.051-0.26-0.01-0.104-0.138c-0.025,0.028,0.278-0.071,0.248-0.109c-0.064-0.062-0.099,0.018-0.185-0.017l-0.092-0.004
						c-0.183,0.081-0.001-0.079-0.194,0.042c0.146-0.079-0.134-0.065,0.169-0.199l0.241-0.101c-0.031-0.026-0.271,0.064-0.385,0.086
						l0.103-0.065c-0.365,0.164-0.001-0.112-0.299-0.035c0.098-0.145-0.063-0.233,0.156-0.368c-0.134-0.021-0.289-0.035-0.233-0.143
						l0.14-0.005c0.096-0.089-0.007-0.064-0.082-0.087c0.059-0.01,0.191-0.174,0.311-0.268c-0.133-0.027-0.333,0.059-0.46,0.093
						c0.36-0.176-0.303-0.122,0.018-0.299c0.06,0.01,0.216,0.045,0.295-0.036c0.363-0.161-0.318-0.044-0.164-0.19l-0.311,0.102
						c0.184-0.092-0.23-0.107,0.099-0.171c-0.125-0.008,0.073-0.14-0.237-0.063c0.203-0.219-0.265-0.382,0.308-0.562
						c-0.055-0.015-0.005-0.078-0.167-0.044c-0.174,0.062,0.13,0.035,0.011,0.065l-0.142-0.007c0.068-0.06,0.088-0.101,0.355-0.092
						c0.188-0.132-0.548-0.04-0.436-0.198c0.132-0.009,0.181-0.026,0.157-0.064l-0.231-0.053c0.045-0.098,0.296-0.083,0.519-0.108
						c-0.042-0.043-0.036-0.102-0.204-0.108l0.276-0.083c-0.199,0.059-0.138-0.027-0.194-0.045l0.056,0.018
						c0.095-0.017,0.032-0.066,0.002-0.092c-0.138,0.017-0.19,0.078-0.228,0.112c-0.1-0.016-0.08-0.057-0.198-0.081
						c0.22-0.005,0.15-0.09,0.17-0.13c0.044-0.046-0.2-0.037-0.194-0.051c0.114-0.008,0.014-0.074,0.176-0.048
						c0.038,0.013-0.108,0.041-0.006,0.06c0.083-0.034,0.282-0.042,0.132-0.093c-0.112-0.039-0.433,0.035-0.3-0.059l0.225,0.033
						l0.108-0.085l-0.2,0.006l0.094-0.013c-0.212-0.015-0.074-0.12-0.312-0.13c-0.024-0.041,0.133-0.091,0.153-0.131l0.018,0.007
						c0.115-0.05,0.031-0.113-0.104-0.148l0.044,0.001c0.016-0.024-0.016-0.081-0.133-0.109c0.151-0.062,0.757-0.03,0.504-0.094
						c-0.007-0.062-0.367-0.092-0.496-0.066c0.136-0.112-0.191-0.235,0.121-0.341l-0.179-0.037c0.079-0.164-0.237-0.342,0.157-0.475
						c0.084,0.046,0.2,0.001,0.314,0c-0.179-0.038,0.187-0.048-0.121-0.06c-0.181,0.005-0.269,0.002-0.342,0.048
						C32.2,8.13,32.201,7.982,32.37,7.927l-0.193-0.014c0.289,0.005,0.332-0.067,0.23-0.121l-0.176-0.006l0.181-0.037
						c-0.057-0.021-0.369-0.021-0.2-0.075l0.187-0.016c-0.147-0.05-0.396-0.116-0.25-0.173l0.254-0.051
						c-0.03-0.023-0.187-0.058-0.258-0.015c0.149-0.097,0.165-0.159,0.385-0.199c-0.551-0.142-0.586-0.361-0.558-0.549l0.132-0.006
						c0.12-0.062-0.231-0.005-0.142-0.048c0.126,0.004,0.27-0.064,0.425-0.039c0.134-0.087-0.233-0.072-0.294-0.111
						c-0.173,0.011,0.112,0.026-0.107,0.04c-0.062-0.001,0.129-0.113-0.132-0.095l0.399-0.04l-0.129-0.029
						c0.301-0.091,0.55,0.063,0.922-0.036l-0.043-0.039c0.27-0.074,0.314,0.082,0.401-0.04c-0.131-0.035-0.51-0.029-0.624,0.026
						c-0.077-0.088-0.622,0.03-0.605-0.072c0.151-0.047,0.041,0.075,0.253,0.029c0.207-0.072-0.123-0.085-0.05-0.127
						C32.281,6.126,32.02,6.15,31.97,6.113c0.12-0.079,0.248,0.007,0.271-0.084c-0.15,0.006-0.267-0.062-0.368,0.023
						c-0.341,0.011,0.09-0.105-0.175-0.121c0.238-0.057,0.557,0.023,0.672-0.087c-0.229,0.043-0.318-0.082-0.659,0.008
						c0.064-0.046,0.246-0.07,0.389-0.059c0.14-0.068-0.427-0.087,0.03-0.152l-0.237,0.005c0.076-0.025,0.133-0.055,0.259-0.094
						c0.002-0.047-0.327-0.126,0.031-0.151c-0.038-0.012-0.026-0.122-0.271-0.061c-0.148,0.081,0.184,0.063-0.148,0.13
						c0.27-0.071-0.04-0.096-0.133-0.13l0.138-0.017c-0.056-0.02-0.027-0.077-0.177-0.082l0.207-0.024l-0.211-0.012
						c-0.109-0.092,0.369-0.046,0.304-0.135l0.166,0.061c-0.036-0.013,0.161-0.056,0.093-0.096
						c-0.192-0.007-0.425-0.028-0.575-0.036c-0.086-0.05,0.216-0.034,0.017-0.078l0.234,0.058c0.063,0.007,0.316-0.06,0.309-0.128
						c-0.068-0.041-0.348-0.102-0.451-0.027c-0.005-0.036,0.111-0.089,0.253-0.065c-0.07-0.078-0.207,0.017-0.329-0.05l0.492-0.178
						l0.325,0.064l0.001-0.046c0.26,0.055,0.196-0.032,0.469-0.003c0.041-0.031-0.052-0.066-0.125-0.095
						c-0.433,0.095-0.599-0.099-0.996-0.073c-0.113-0.134,0.964-0.074,0.338-0.214c-0.103,0.021-0.407-0.048-0.29,0.036
						c0.041-0.081-0.4-0.063-0.239-0.158c0.166,0.075,0.4-0.065,0.64,0.042c-0.132-0.01-0.098,0.054-0.061,0.07
						c0.152-0.03,0.401,0.014,0.398-0.065c-0.039-0.049-0.049-0.115-0.256-0.112c-0.228-0.005,0.026,0.076-0.205,0.038
						c-0.082-0.103,0.264-0.105-0.141-0.163c0.034,0.064-0.2,0.072-0.356,0.065l-0.097-0.079l0.151,0.021
						c0.106-0.116-0.275-0.047-0.237-0.165l0.297-0.04c0.258,0.041-0.11,0.164,0.308,0.162c0.015-0.073-0.198-0.109-0.092-0.173
						l0.085,0.057c0.013-0.027,0.567-0.02,0.24-0.143c-0.127-0.062-0.149-0.024-0.306-0.036c-0.052-0.124-0.193-0.163-0.213-0.239
						c0.303,0.039,0.046-0.125,0.348-0.021c-0.181,0.023-0.193,0.183,0.104,0.247c0.361-0.018-0.048,0.089,0.319,0.136
						c0.006-0.091,0.362-0.062,0.595-0.061c0.017-0.023-0.085-0.054-0.118-0.07c-0.219-0.026-0.22,0.005-0.444-0.009
						c0.07-0.094-0.039-0.195-0.246-0.268c0.113-0.024,0.331,0.005,0.346,0.044c-0.049-0.121-0.003-0.242,0.078-0.345
						c-0.368,0.038-0.068-0.13-0.372-0.11c-0.088,0.052-0.35,0.08-0.506,0.032c0.028-0.036,0.157,0.016,0.235,0.007
						c-0.189-0.067,0.323-0.044,0.021-0.121c0.102,0.119,0.433,0.063,0.71,0.11c-0.147-0.091,0.199,0.023,0.209-0.052
						c-0.146-0.09-0.256-0.196-0.305-0.287c0.279-0.077,0.04-0.267,0.042-0.364c0.148-0.032,0.459,0.04,0.521-0.006
						c0.002-0.062-0.347,0.003-0.19-0.07l0.062,0.017c-0.069-0.038,0.237-0.14-0.212-0.228l0.337,0.074
						c0.034-0.013-0.042-0.039-0.077-0.058l0.285,0.045c0.243-0.024-0.021-0.123-0.023-0.186l-0.207,0.011
						c-0.145-0.128,0.065-0.17,0.009-0.282l0.197,0.033l-0.11-0.079c0.189,0.044,0.32,0.008,0.165-0.049l0.462,0.229
						c-0.123,0.026-0.232-0.083-0.43-0.084c-0.174-0.002-0.132,0.1,0.056,0.143c0.026-0.033-0.017-0.041-0.084-0.079
						c0.276,0.029,0.259,0.082,0.439,0.134c-0.009-0.02,0.078-0.034-0.008-0.051c0.129,0.056,0.145,0.095,0.144,0.156
						c-0.103-0.056-0.174-0.001-0.25-0.028c0.241,0.039,0.309,0.107,0.23,0.171c-0.288,0.016,0.162,0.164,0.073,0.238
						C33.904,2.136,33.713,2.066,33.621,2c-0.13,0.039-0.001,0.062-0.132,0.102c0.18,0.05,0.458,0.104,0.56,0.188l-0.182-0.018
						c0.084,0.075,0.353,0.107,0.292,0.182c-0.108,0.128-0.127,0.271-0.164,0.375l-0.182-0.014c0.38,0.098,0.117,0.211,0.279,0.307
						c-0.193,0.12,0.134,0.306-0.189,0.35c0.107,0.251,0.284,0.451,0.216,0.687L33.851,4.11c0.197,0.048-0.152,0.025-0.11,0.069
						c0.21-0.045,0.277,0.064,0.441,0.094c-0.203,0.104,0.027,0.243,0.217,0.329L34.216,4.61c0.346,0.084,0.049,0.201-0.003,0.324
						c-0.075,0.017-0.246,0.048-0.224,0.083c0.297,0.046,0.277,0.081,0.464,0.158c0.002,0.066-0.067,0.181-0.18,0.261
						c0.415,0.187,0.164,0.501,0.437,0.805l-0.212,0.044c0.476,0.261,0.083,0.669,0.333,0.915l-0.368-0.011
						c-0.109,0.083,0.106,0.178,0.365,0.151c-0.108,0.084,0.189,0.202-0.109,0.258c-0.062,0.085,0.172,0.096,0.222,0.16
						C34.8,7.911,34.832,7.967,34.9,8.11l0.023-0.036c-0.081-0.015-0.237-0.016-0.26,0.021c0.102,0.053-0.099,0.198,0.339,0.141
						c-0.253,0.155,0.205,0.355-0.136,0.507c0.119-0.014,0.142,0.023,0.223,0.039c0.005,0.134-0.24,0.278-0.036,0.383
						c-0.06,0.022-0.204-0.032-0.216,0.023l0.223,0.038c0.222,0.214-0.203,0.396-0.136,0.578c0.254,0.292,0.16,0.615,0.217,0.905
						l-0.087,0.01c0.328,0.046-0.279,0.263,0.23,0.234c-0.075,0.036-0.015,0.08-0.185,0.104c0.251,0.006-0.156,0.241,0.164,0.256
						l-0.053-0.01c-0.156,0.154,0.122,0.157-0.015,0.317l-0.153,0.019c-0.146,0.102,0.375-0.034-0.014,0.14
						c0.01,0.023,0.203-0.061,0.188-0.07c-0.111,0.266,0.242,0.455,0.481,0.771c-0.14,0.334-0.651,0.292-0.288,0.353
						c-0.069,0.046,0.154-0.051,0.074-0.015c0.138,0.027-0.396,0.286-0.171,0.252c0.234-0.116,0.148-0.021,0.296-0.078
						c-0.101,0.205-0.311,0.312-0.083,0.354l-0.132,0.039c0.414-0.003,0.278,0.218,0.744,0.188c0.311,0.688,0.738,1.375,0.964,2.005
						c0.078,0.671,0.433,1.22,0.416,1.813c-0.291,0.257-0.276,0.27-0.09,0.36l-0.119,0.042c0.276-0.104,0.062,0.093,0.326-0.002
						c0.001,0.215,0.199,0.333,0.286,0.518c-0.043-0.014-0.264,0.083-0.228,0.11l0.185-0.053l-0.069,0.045
						c0.052,0.003,0.192-0.042,0.263-0.112c0.432,0.298,0.257,1.032,0.628,1.284c-0.008,0.15,0.175,0.16,0.283,0.18
						c-0.036,0.561,0.18,0.816,0.503,0.746C39.487,20.509,39.324,21.242,39.098,21.338z"/>
					<path fill="#571C05" d="M34.145,1.403c-0.148-0.006-0.236,0.039-0.424-0.037L34.145,1.403z"/>
					<path fill="#571C05" d="M32.432,2.753c0.043,0.007-0.062,0.017-0.086,0.02c-0.009-0.021-0.13-0.052-0.052-0.06
						C32.301,2.735,32.372,2.739,32.432,2.753z"/>
					<path fill="#571C05" d="M32.291,3.152c-0.13-0.017-0.223-0.114-0.231-0.167L32.291,3.152z"/>
					<path fill="#571C05" d="M31.709,3.499c-0.11,0.029-0.17,0.015-0.168-0.034L31.709,3.499z"/>
					<path fill="#571C05" d="M32.008,3.548c0.004,0.034-0.073,0.046-0.147,0.059C31.974,3.612,31.789,3.522,32.008,3.548z"/>
					<path fill="#571C05" d="M31.652,4.441c0.011,0.022,0.122,0.068-0.024,0.09C31.729,4.508,31.458,4.425,31.652,4.441z"/>
					<path fill="#571C05" d="M31.864,4.86l0.005,0.035C31.81,4.923,31.713,4.9,31.701,4.879L31.864,4.86z"/>
					<polygon fill="#571C05" points="32.837,11.77 32.761,11.74 32.889,11.715 					"/>
					<path fill="#571C05" d="M33.845,14.604c0.089,0.012-0.11,0.062-0.127,0.075C33.695,14.649,33.876,14.643,33.845,14.604z"/>
					<polygon fill="#571C05" points="34.889,15.928 34.883,15.917 35.145,15.854 					"/>
				</g>
			</g>
		</g>
	</g>
	<g>
		<path fill="none" stroke="#000000" stroke-width="8" d="M229.336,24.882"/>
		<g>
			<path fill="#8F3A17" d="M234.813,20.403c-9.576,0.377-4.49,16.863,2.881,14.705c8.146-2.212,1.072-17.458-3.14-14.688"/>
			<g>
				<path fill="#8F3A17" d="M234.939,19.847c-10.212,0.772-6.744,17.225,2.181,15.927c10.062-1.464,3.76-19.512-3.17-15.659
					c-1.141,0.634,0.56,0.973,1.209,0.611c2.06-1.145,4.536,5.075,4.868,6.184c0.881,2.944,0.498,8.4-3.918,7.773
					c-5.648-0.802-8.476-13.19-1.422-13.724C235.656,20.886,236.276,19.746,234.939,19.847L234.939,19.847z"/>
			</g>
		</g>
		<g>
			<g>
				<g>
					<path fill="#571C05" d="M233.936,20.191c-0.08,0.003-0.122,0.202-0.092,0.051C233.916,20.165,233.976,20.112,233.936,20.191z"
						/>
					<path fill="#571C05" d="M238.325,34.912c-0.687-0.186,0.008-0.431-0.43-0.634c-0.029-0.024,0.376,0.005,0.285-0.048
						c-0.533-0.196-0.215-0.507,0.197-0.75l0.106,0.014c0.076-0.046-0.275-0.101-0.227-0.149l0.197,0.003
						c-0.213-0.011-0.099-0.087-0.257-0.107l0.345-0.043l-0.241-0.027c-0.576-0.074,0.035-0.188-0.264-0.292l0.155,0.006
						c-0.354-0.166-0.293-0.377-0.426-0.563l0.338-0.004c-0.255-0.004-0.32-0.061-0.372-0.11c0.262-0.029-0.24-0.08-0.098-0.143
						l0.058,0.003c-0.274-0.036,0.157-0.069-0.172-0.095l0.205-0.034c-0.37-0.008,0.189-0.069,0.001-0.1l-0.075,0.003
						c-0.091-0.031,0.095-0.055,0.031-0.084l0.042-0.004c-0.098-0.07,0.106-0.121-0.182-0.108c0.23-0.034,0.107,0.068,0.441,0.015
						c-0.302-0.234-0.245-0.486-0.276-0.729l0.255-0.067c-0.06-0.021-0.061-0.089-0.209-0.102c0.007,0.008,0.146-0.025,0.159-0.039
						c0.104-0.052-0.32-0.028-0.195-0.085l0.277,0c-0.228-0.026-0.196-0.084-0.272-0.128l0.169,0.005
						c-0.259-0.035,0.045-0.103-0.119-0.137l0.167,0.004c0.195-0.093-0.349,0.005-0.235-0.07l0.186-0.002
						c-0.306-0.037-0.214-0.143-0.321-0.195l0.068-0.003c-0.043-0.063,0.045-0.141-0.093-0.201c0.071-0.034,0.405-0.032,0.338-0.096
						c-0.332,0.037-0.146-0.105-0.519-0.024c0.049-0.065,0.166-0.173,0.051-0.2c0.128,0.013,0.402-0.076,0.435-0.029l0.198-0.061
						c0.136-0.01-0.043,0.044,0.127,0.013c-0.016-0.024-0.152-0.083-0.101-0.112c-0.208-0.023-0.589-0.02-0.639-0.088
						c0.135,0.018,0.361-0.066,0.422-0.049l-0.653-0.021c-0.02-0.022,0.261-0.04,0.168-0.063l-0.218,0.005
						c0.037-0.015-0.1-0.087,0.224-0.145c0.125-0.029,0.075,0.03,0.187-0.014l-0.137-0.075l0.044-0.007
						c0.043-0.037-0.154-0.066-0.328-0.007c-0.007,0.022,0.193-0.037,0.104,0.007c-0.192,0.008-0.255-0.035-0.266-0.078l0.234-0.017
						c-0.267-0.02-0.358-0.068-0.477-0.116c-0.155,0.025,0.285-0.023,0.205,0.001c0.198-0.122-0.335-0.121-0.035-0.246
						c0.029,0.006-0.218,0.046-0.174,0.037c0.012-0.043,0.234-0.083,0.147-0.094c0.13-0.027-0.048-0.025-0.093-0.045
						c-0.097,0.004,0.062-0.02,0.081,0.002c-0.118-0.018-0.345-0.127-0.171-0.253c-0.086,0.02-0.325,0.013-0.319-0.009l0.202-0.035
						c0.117-0.043-0.029-0.063,0.143-0.103c-0.252,0.009,0.237,0.121,0.039,0.103c0.165-0.051-0.335-0.013-0.059-0.059
						c-0.016-0.039-0.248-0.028-0.067-0.108c-0.03,0.018,0.285-0.028,0.265-0.058c-0.046-0.05-0.099,0.005-0.174-0.027l-0.088-0.011
						c-0.195,0.042,0.018-0.057-0.197,0.014c0.16-0.044-0.114-0.059,0.211-0.128l0.256-0.052c-0.023-0.021-0.275,0.022-0.392,0.029
						l0.114-0.036c-0.391,0.089,0.022-0.066-0.284-0.024c0.119-0.083-0.027-0.128,0.208-0.213c-0.13-0.009-0.28-0.007-0.21-0.073
						c0.039-0.001,0.054,0.008,0.138-0.011c0.105-0.057,0.002-0.038-0.069-0.046c0.06-0.01,0.21-0.116,0.337-0.184
						c-0.127-0.008-0.332,0.062-0.46,0.093c0.37-0.14-0.278-0.039,0.054-0.179c0.056-0.001,0.204,0.004,0.289-0.055
						c0.369-0.144-0.302,0.008-0.137-0.101l-0.311,0.105c0.187-0.082-0.209-0.029,0.113-0.117c-0.118,0.015,0.084-0.098-0.221,0
						c0.231-0.171-0.224-0.173,0.307-0.403c-0.056,0.003-0.014-0.047-0.168,0.01c-0.163,0.077,0.131-0.008,0.018,0.038l-0.14,0.027
						c0.061-0.051,0.075-0.081,0.338-0.135c0.168-0.126-0.538,0.101-0.444-0.018c0.127-0.038,0.173-0.06,0.146-0.077l-0.229,0.027
						c0.034-0.069,0.276-0.126,0.488-0.2c-0.045-0.016-0.046-0.055-0.208-0.013l0.256-0.127c-0.185,0.092-0.136,0.021-0.19,0.025
						l0.055-0.004c0.089-0.037,0.023-0.051-0.008-0.058c-0.13,0.05-0.173,0.102-0.205,0.134c-0.098,0.018-0.083-0.012-0.198,0.008
						c0.209-0.067,0.134-0.098,0.148-0.128c0.037-0.042-0.194,0.038-0.189,0.028c0.107-0.04,0.006-0.048,0.162-0.083
						c0.037-0.004-0.099,0.058,0,0.038c0.075-0.046,0.263-0.111,0.115-0.098c-0.11,0.011-0.405,0.155-0.29,0.058l0.216-0.05
						l0.093-0.086l-0.188,0.067l0.088-0.038c-0.2,0.058-0.086-0.048-0.314,0.025c-0.029-0.014,0.109-0.095,0.121-0.125l0.018-0.002
						c0.099-0.068,0.011-0.076-0.126-0.048l0.042-0.015c0.008-0.02-0.036-0.042-0.154-0.017c0.125-0.091,0.698-0.291,0.445-0.238
						c-0.023-0.035-0.366,0.079-0.479,0.142c0.097-0.116-0.239-0.064,0.021-0.245l-0.176,0.047c0.029-0.127-0.307-0.104,0.019-0.34
						l0.288-0.128c-0.174,0.05,0.157-0.105-0.127,0.014c-0.164,0.077-0.245,0.111-0.3,0.167c-0.114-0.017-0.152-0.101-0.014-0.204
						l-0.179,0.073c0.264-0.119,0.283-0.18,0.178-0.167l-0.161,0.071l0.154-0.099c-0.057,0.012-0.339,0.146-0.201,0.042l0.166-0.091
						c-0.145,0.029-0.385,0.091-0.266-0.01l0.217-0.143c-0.032-0.003-0.182,0.041-0.236,0.1c0.112-0.129,0.112-0.177,0.302-0.298
						c-0.532,0.142-0.604,0-0.648-0.118l0.117-0.061c0.089-0.088-0.211,0.097-0.145,0.033l0.374-0.207
						c0.093-0.11-0.235,0.058-0.305,0.061c-0.153,0.082,0.11-0.033-0.084,0.07c-0.057,0.026,0.08-0.124-0.15,0l0.35-0.197
						l-0.127,0.039c0.244-0.186,0.521-0.201,0.826-0.422l-0.052-0.005c0.221-0.162,0.312-0.086,0.352-0.198
						c-0.131,0.036-0.474,0.204-0.559,0.286c-0.099-0.02-0.556,0.29-0.573,0.221c0.122-0.094,0.062,0.027,0.239-0.093
						c0.164-0.135-0.137,0.005-0.089-0.057c-0.067,0.078-0.31,0.19-0.361,0.199c0.088-0.093,0.225-0.109,0.221-0.165
						c-0.134,0.071-0.254,0.093-0.323,0.18c-0.303,0.164,0.054-0.091-0.187,0.026c0.196-0.14,0.502-0.25,0.574-0.359
						c-0.192,0.129-0.304,0.111-0.581,0.317c0.046-0.052,0.199-0.151,0.328-0.214c0.104-0.102-0.397,0.166-0.014-0.089l-0.205,0.119
						l0.201-0.174c-0.011-0.025-0.315,0.104-0.015-0.09c-0.035,0.013-0.055-0.046-0.249,0.11c-0.106,0.114,0.175-0.063-0.095,0.137
						c0.215-0.171-0.059-0.025-0.146,0.009l0.113-0.08c-0.052,0.02-0.042-0.021-0.171,0.056l0.169-0.12l-0.182,0.106
						c-0.114,0.017,0.301-0.217,0.223-0.225l0.156-0.06c-0.033,0.013,0.121-0.113,0.053-0.097l-0.491,0.295
						c-0.084,0.025,0.172-0.134-0.005-0.044l0.21-0.102c0.055-0.031,0.248-0.201,0.223-0.231c-0.068,0.017-0.314,0.146-0.381,0.238
						c-0.013-0.014,0.069-0.104,0.192-0.172c-0.078,0.002-0.167,0.125-0.284,0.163l0.355-0.366l0.283-0.155l-0.012-0.024
						c0.229-0.122,0.149-0.131,0.381-0.273c0.024-0.041-0.063-0.006-0.131,0.02c-0.323,0.303-0.514,0.301-0.824,0.55
						c-0.124,0.007,0.751-0.615,0.213-0.306c-0.076,0.072-0.336,0.226-0.221,0.193c0.011-0.063-0.334,0.216-0.229,0.074
						c0.15-0.067,0.298-0.28,0.516-0.376c-0.106,0.077-0.062,0.087-0.028,0.073c0.112-0.108,0.322-0.239,0.296-0.279
						c-0.046-0.002-0.073-0.031-0.234,0.101c-0.18,0.14,0.043,0.021-0.149,0.146c-0.092,0.002,0.176-0.219-0.155,0.01
						c0.044,0.009-0.137,0.161-0.261,0.256l-0.096,0.025l0.124-0.087c0.048-0.115-0.228,0.155-0.234,0.09l0.215-0.205
						c0.211-0.151-0.03,0.13,0.292-0.137c-0.015-0.038-0.19,0.085-0.132-0.008l0.085-0.033c0.001-0.018,0.423-0.378,0.129-0.214
						c-0.118,0.059-0.12,0.089-0.242,0.188c-0.081-0.014-0.216,0.076-0.263,0.065c0.239-0.192-0.026-0.069,0.242-0.241
						c-0.121,0.131-0.046,0.182,0.196,0.012c0.263-0.248-0.004,0.068,0.291-0.154c-0.031-0.043,0.246-0.268,0.421-0.423
						c0.001-0.022-0.086,0.03-0.12,0.046c-0.175,0.136-0.157,0.149-0.332,0.294c0.004-0.081-0.132-0.044-0.316,0.073
						c0.068-0.085,0.239-0.225,0.271-0.221c-0.1-0.009-0.13-0.083-0.129-0.178c-0.235,0.273-0.115,0.003-0.314,0.227
						c-0.035,0.08-0.204,0.272-0.336,0.368c0.002-0.03,0.117-0.105,0.167-0.163c-0.163,0.113,0.202-0.244-0.044-0.053
						c0.128-0.035,0.33-0.288,0.544-0.471c-0.149,0.073,0.148-0.135,0.114-0.17c-0.148,0.072-0.278,0.115-0.358,0.119
						c0.144-0.234-0.115-0.125-0.162-0.158c0.077-0.125,0.312-0.338,0.326-0.404c-0.033-0.025-0.216,0.271-0.157,0.121l0.047-0.042
						c-0.062,0.041,0.069-0.24-0.253,0.083l0.246-0.24c0.014-0.032-0.048,0.019-0.079,0.04l0.198-0.209
						c0.133-0.204-0.083-0.032-0.118-0.054l-0.117,0.171c-0.155,0.069-0.054-0.116-0.148-0.112l0.131-0.15l-0.105,0.061
						c0.132-0.14,0.186-0.263,0.066-0.155l0.394-0.292c-0.055,0.112-0.181,0.158-0.295,0.322c-0.101,0.142-0.021,0.146,0.113,0.01
						c-0.003-0.035-0.033-0.002-0.094,0.038c0.176-0.216,0.196-0.18,0.332-0.306c-0.017-0.001,0.024-0.079-0.035-0.015
						c0.108-0.083,0.142-0.079,0.178-0.051c-0.094,0.06-0.103,0.141-0.163,0.191c0.165-0.18,0.246-0.205,0.24-0.113
						c-0.164,0.237,0.197-0.058,0.191,0.047c-0.189,0.161-0.349,0.282-0.443,0.329c-0.057,0.119,0.036,0.026-0.022,0.145
						c0.14-0.121,0.344-0.316,0.46-0.358l-0.125,0.134c0.098-0.033,0.287-0.227,0.296-0.145c0.012,0.141,0.088,0.219,0.129,0.293
						l-0.131,0.127c0.315-0.235,0.21,0.009,0.381-0.063c-0.06,0.191,0.291,0.051,0.089,0.294c0.23,0.042,0.47,0.068,0.508,0.274
						l-0.229,0.134c0.174-0.09-0.109,0.111-0.061,0.114c0.148-0.16,0.244-0.128,0.388-0.206c-0.12,0.194,0.119,0.149,0.313,0.106
						l-0.147,0.109c0.321-0.134,0.127,0.117,0.131,0.228c-0.057,0.052-0.188,0.162-0.157,0.174c0.272-0.122,0.27-0.088,0.465-0.125
						c0.031,0.047,0.02,0.164-0.048,0.272c0.466-0.044,0.356,0.277,0.691,0.338l-0.178,0.119c0.529-0.046,0.27,0.391,0.549,0.446
						l-0.334,0.15c-0.078,0.102,0.138,0.072,0.365-0.057c-0.078,0.102,0.218,0.052-0.038,0.217c-0.038,0.082,0.182-0.01,0.246,0.014
						c-0.078,0.167-0.032,0.191,0.075,0.263l0.01-0.035c-0.078,0.023-0.22,0.087-0.23,0.121c0.109-0.005-0.029,0.177,0.354-0.04
						c-0.184,0.209,0.302,0.171,0.035,0.409l0.219-0.058c0.048,0.094-0.135,0.285,0.088,0.285c-0.049,0.037-0.2,0.052-0.194,0.094
						l0.22-0.053c0.277,0.075-0.071,0.393,0.02,0.516c0.296,0.178,0.27,0.487,0.381,0.72l-0.085,0.023
						c0.347-0.016-0.27,0.292,0.234,0.212c-0.074,0.043-0.015,0.086-0.183,0.119c0.248,0-0.159,0.244,0.16,0.257l-0.053-0.011
						c-0.159,0.146,0.123,0.162-0.017,0.307l-0.157,0.007c-0.152,0.081,0.387-0.001-0.018,0.125c0.01,0.021,0.211-0.037,0.195-0.047
						c-0.083,0.256,0.208,0.434,0.351,0.652c-0.217,0.222-0.696,0.158-0.362,0.225c-0.078,0.027,0.159-0.025,0.074-0.005
						c0.125,0.028-0.449,0.173-0.226,0.164c0.252-0.065,0.147-0.005,0.303-0.035c-0.147,0.135-0.374,0.198-0.165,0.242l-0.136,0.019
						c0.396,0.023,0.213,0.169,0.667,0.174c0.19,0.518,0.507,1,0.586,1.514c-0.048,0.516,0.212,1.018-0.01,1.536
						c-0.357,0.132-0.348,0.14-0.198,0.264h-0.127c0.295-0.004,0.03,0.089,0.312,0.092c-0.051,0.188,0.034,0.356,0.04,0.548
						c-0.032-0.03-0.273-0.039-0.253-0.003l0.188,0.033l-0.082,0.008c0.044,0.023,0.19,0.047,0.285,0.02
						c0.267,0.482-0.316,0.962-0.248,1.41c-0.123,0.108-0.011,0.262,0.05,0.38c-0.394,0.349-0.711,0.663-0.437,1.017
						C239.264,35.104,238.501,35.057,238.325,34.912z"/>
					<path fill="#571C05" d="M234.007,20.221c-0.085,0.123-0.108,0.214-0.257,0.342L234.007,20.221z"/>
					<path fill="#571C05" d="M233.696,22.075c0.033-0.029-0.034,0.051-0.05,0.069c-0.017,0-0.114,0.077-0.065,0.018L233.696,22.075z
						"/>
					<path fill="#571C05" d="M233.801,22.306c-0.102,0.083-0.216,0.117-0.248,0.107L233.801,22.306z"/>
					<path fill="#571C05" d="M233.54,22.809c-0.073,0.083-0.124,0.118-0.138,0.099L233.54,22.809z"/>
					<path fill="#571C05" d="M233.781,22.63c0.016,0.01-0.038,0.065-0.091,0.119C233.778,22.677,233.607,22.765,233.781,22.63z"/>
					<path fill="#571C05" d="M233.761,23.244c0.015,0.003,0.116-0.04,0.004,0.055C233.841,23.229,233.601,23.351,233.761,23.244z"/>
					<polygon fill="#571C05" points="234.042,23.317 234.055,23.331 233.911,23.417 					"/>
					<polygon fill="#571C05" points="236.292,26.985 236.222,26.978 236.348,26.946 					"/>
					<path fill="#571C05" d="M236.721,28.883c0.086,0.013-0.118,0.038-0.137,0.045C236.565,28.907,236.745,28.912,236.721,28.883z"
						/>
					<polygon fill="#571C05" points="237.512,29.866 237.507,29.858 237.774,29.833 					"/>
				</g>
			</g>
		</g>
		<g>
			<g>
				<g>
					<path fill="#571C05" d="M234.822,20.685c-0.051-0.067-0.231-0.009-0.096-0.055C234.83,20.656,234.908,20.681,234.822,20.685z"
						/>
					<path fill="#571C05" d="M238.495,34.687c-0.364,0.592-0.36-0.14-0.736,0.183c-0.037,0.015,0.192-0.317,0.106-0.271
						c-0.432,0.334-0.555-0.17-0.425-0.588l0.085-0.068c0.021-0.075-0.267,0.138-0.259,0.063l0.146-0.132
						c-0.161,0.137-0.123,0.003-0.252,0.094l0.231-0.261l-0.197,0.14c-0.483,0.316-0.083-0.167-0.378-0.06l0.127-0.089
						c-0.388,0.085-0.475-0.132-0.671-0.242l0.29-0.172c-0.222,0.125-0.308,0.104-0.378,0.083c0.216-0.151-0.254,0.038-0.16-0.09
						l0.054-0.023c-0.266,0.089,0.105-0.134-0.205-0.014l0.168-0.121c-0.339,0.15,0.137-0.146-0.05-0.094l-0.066,0.035
						c-0.099,0.009,0.057-0.093-0.011-0.097l0.037-0.021c-0.115-0.033,0.056-0.16-0.207-0.041c0.201-0.12,0.124,0.028,0.414-0.151
						c-0.36-0.112-0.405-0.39-0.501-0.626l0.228-0.133c-0.063-0.005-0.084-0.071-0.232-0.048c0.009,0.006,0.135-0.06,0.144-0.077
						c0.09-0.075-0.316,0.046-0.207-0.041l0.27-0.062c-0.227,0.025-0.207-0.041-0.291-0.068l0.166-0.031
						c-0.259,0.021,0.024-0.113-0.144-0.113l0.164-0.03c0.173-0.132-0.34,0.077-0.243-0.022l0.182-0.04
						c-0.308,0.025-0.239-0.103-0.354-0.135l0.066-0.017c-0.055-0.056,0.017-0.151-0.131-0.188c0.063-0.046,0.394-0.1,0.314-0.153
						c-0.321,0.091-0.165-0.083-0.519,0.059c0.036-0.076,0.13-0.201,0.009-0.209c0.13-0.007,0.385-0.138,0.427-0.096l0.185-0.092
						c0.133-0.031-0.033,0.051,0.129-0.007c-0.021-0.021-0.17-0.059-0.124-0.096c-0.211,0.009-0.591,0.074-0.652,0.014
						c0.135-0.002,0.348-0.124,0.409-0.117l-0.644,0.082c-0.022-0.019,0.251-0.082,0.157-0.091l-0.213,0.04
						c0.034-0.021-0.108-0.074,0.202-0.183c0.119-0.049,0.077,0.019,0.182-0.043l-0.143-0.055l0.041-0.014
						c0.038-0.045-0.158-0.044-0.322,0.044c-0.004,0.023,0.187-0.068,0.104-0.009c-0.188,0.038-0.253,0.004-0.27-0.039l0.228-0.054
						c-0.263,0.022-0.358-0.014-0.479-0.043c-0.148,0.049,0.276-0.068,0.201-0.032c0.178-0.155-0.355-0.055-0.083-0.228
						c0.03,0.001-0.206,0.083-0.165,0.067c0.003-0.043,0.216-0.122,0.127-0.116c0.123-0.05-0.053-0.015-0.101-0.024
						c-0.095,0.022,0.058-0.03,0.08-0.014c-0.121,0.005-0.365-0.05-0.221-0.204c-0.08,0.036-0.315,0.081-0.313,0.061l0.19-0.076
						c0.105-0.066-0.041-0.053,0.118-0.128c-0.244,0.062,0.258,0.063,0.06,0.089c0.15-0.083-0.331,0.06-0.069-0.042
						c-0.023-0.034-0.248,0.028-0.087-0.087c-0.026,0.023,0.271-0.09,0.245-0.114c-0.056-0.038-0.096,0.026-0.175,0.013l-0.088,0.01
						c-0.182,0.085,0.006-0.058-0.188,0.059c0.146-0.079-0.121-0.028,0.179-0.17l0.237-0.109c-0.026-0.015-0.263,0.085-0.372,0.12
						l0.103-0.061c-0.359,0.175,0.01-0.061-0.282,0.032c0.1-0.129-0.052-0.179,0.165-0.313c-0.128,0-0.278,0.007-0.219-0.085
						l0.136-0.021c0.097-0.082-0.004-0.049-0.076-0.059c0.059-0.015,0.194-0.159,0.314-0.245c-0.128-0.006-0.326,0.083-0.451,0.123
						c0.357-0.175-0.291-0.066,0.03-0.238c0.059,0.002,0.209,0.014,0.29-0.057c0.363-0.159-0.308-0.003-0.149-0.132l-0.31,0.106
						c0.186-0.087-0.221-0.065,0.105-0.142c-0.122,0.003,0.078-0.114-0.23-0.031c0.229-0.183-0.267-0.29,0.308-0.454
						c-0.055-0.008-0.005-0.058-0.166-0.023c-0.174,0.056,0.129,0.019,0.011,0.048l-0.142,0.003c0.068-0.049,0.089-0.08,0.354-0.088
						c0.188-0.107-0.545,0-0.431-0.125c0.132-0.013,0.181-0.028,0.157-0.055l-0.23-0.03c0.047-0.075,0.296-0.074,0.519-0.103
						c-0.041-0.03-0.034-0.073-0.201-0.072l0.275-0.071c-0.199,0.051-0.137-0.015-0.192-0.026l0.056,0.011
						c0.095-0.016,0.033-0.05,0.004-0.067c-0.139,0.017-0.191,0.064-0.229,0.091c-0.1-0.009-0.079-0.039-0.196-0.054
						c0.22-0.011,0.151-0.072,0.172-0.103c0.044-0.036-0.199-0.022-0.193-0.032c0.114-0.009,0.015-0.055,0.177-0.041
						c0.037,0.009-0.108,0.034-0.007,0.045c0.083-0.028,0.281-0.04,0.133-0.073c-0.111-0.026-0.433,0.038-0.299-0.036l0.224,0.019
						l0.109-0.066l-0.2,0.009l0.095-0.011c-0.213-0.006-0.072-0.087-0.311-0.091c-0.023-0.03,0.134-0.07,0.154-0.1l0.019,0.005
						c0.115-0.04,0.034-0.083-0.104-0.11l0.044,0c0.015-0.02-0.021-0.065-0.137-0.083c0.15-0.045,0.756-0.025,0.504-0.069
						c-0.007-0.044-0.367-0.064-0.495-0.045c0.136-0.081-0.191-0.167,0.12-0.244l-0.18-0.026c0.079-0.117-0.236-0.243,0.157-0.34
						l0.314-0.001c-0.179-0.026,0.187-0.035-0.121-0.042c-0.181,0.004-0.269,0.002-0.342,0.036
						c-0.098-0.068-0.098-0.174,0.071-0.214l-0.193-0.009c0.289,0.003,0.332-0.049,0.23-0.087l-0.176-0.004l0.182-0.026
						c-0.057-0.015-0.369-0.014-0.2-0.054l0.188-0.013c-0.143-0.043-0.393-0.081-0.245-0.121l0.254-0.036
						c-0.029-0.016-0.186-0.038-0.257-0.009c0.149-0.066,0.167-0.108,0.388-0.138c-0.549-0.09-0.58-0.232-0.549-0.359l0.132-0.008
						c0.12-0.045-0.23,0.004-0.141-0.028l0.425-0.041c0.136-0.064-0.23-0.041-0.292-0.065c-0.172,0.014,0.111,0.013-0.107,0.031
						c-0.062,0.002,0.131-0.081-0.129-0.058l0.398-0.043l-0.128-0.015c0.302-0.075,0.548,0.021,0.92-0.061l-0.043-0.025
						c0.271-0.062,0.312,0.047,0.401-0.043c-0.131-0.021-0.509-0.001-0.623,0.042c-0.075-0.058-0.62,0.047-0.603-0.023
						c0.151-0.039,0.04,0.049,0.253,0.008c0.207-0.06-0.121-0.049-0.049-0.088c-0.096,0.045-0.359,0.055-0.408,0.043
						c0.124-0.036,0.244-0.023,0.271-0.064c-0.149,0.012-0.266-0.034-0.367,0.035c-0.341,0.023,0.091-0.083-0.175-0.084
						c0.238-0.053,0.556-0.007,0.672-0.094c-0.229,0.043-0.317-0.048-0.657,0.034c0.064-0.038,0.246-0.063,0.388-0.06
						c0.141-0.057-0.425-0.05,0.031-0.116l-0.236,0.013c0.076-0.021,0.133-0.046,0.26-0.081c0.003-0.035-0.325-0.084,0.031-0.114
						c-0.037-0.008-0.024-0.09-0.271-0.038c-0.147,0.065,0.184,0.042-0.148,0.103c0.271-0.062-0.04-0.072-0.132-0.096l0.138-0.017
						c-0.055-0.014-0.026-0.058-0.177-0.058l0.207-0.023l-0.212-0.004c-0.108-0.067,0.369-0.043,0.305-0.11l0.166,0.042
						c-0.036-0.009,0.16-0.045,0.094-0.074c-0.193-0.001-0.425-0.012-0.574-0.016c-0.086-0.037,0.216-0.029,0.017-0.06l0.234,0.04
						c0.063,0.004,0.315-0.051,0.309-0.102c-0.068-0.029-0.348-0.073-0.451-0.014c-0.004-0.027,0.112-0.069,0.254-0.053
						c-0.069-0.058-0.207,0.016-0.329-0.034l0.493-0.14l0.324,0.045l0.002-0.034c0.26,0.038,0.195-0.025,0.469-0.006
						c0.041-0.023-0.052-0.047-0.124-0.068c-0.434,0.073-0.598-0.07-0.995-0.05c-0.111-0.102,0.965-0.056,0.34-0.162
						c-0.104,0.016-0.407-0.038-0.29,0.026c0.041-0.061-0.4-0.049-0.237-0.12c0.164,0.057,0.4-0.047,0.64,0.035
						c-0.132-0.008-0.099,0.04-0.062,0.052c0.152-0.021,0.401,0.011,0.399-0.047c-0.039-0.036-0.049-0.085-0.256-0.084
						c-0.228-0.006,0.026,0.057-0.204,0.026c-0.081-0.078,0.265-0.076-0.141-0.123c0.034,0.048-0.2,0.052-0.356,0.046l-0.097-0.062
						l0.151,0.018c0.106-0.087-0.274-0.039-0.236-0.128l0.298-0.026c0.258,0.035-0.111,0.123,0.308,0.126
						c0.015-0.054-0.198-0.084-0.091-0.131l0.084,0.044c0.014-0.021,0.567-0.005,0.241-0.103c-0.127-0.048-0.149-0.021-0.306-0.033
						c-0.052-0.095-0.2-0.127-0.22-0.183c0.304,0.036,0.043-0.09,0.347-0.006c-0.181,0.012-0.186,0.129,0.113,0.185
						c0.361-0.006-0.05,0.065,0.317,0.107c0.007-0.067,0.363-0.039,0.596-0.033c0.017-0.016-0.083-0.041-0.119-0.054
						c-0.221-0.024-0.217,0-0.442-0.016c0.062-0.068-0.046-0.143-0.256-0.202c0.112-0.015,0.33,0.012,0.347,0.042
						c-0.053-0.089-0.01-0.176,0.067-0.248c-0.365,0.016-0.071-0.097-0.373-0.092c-0.087,0.035-0.347,0.047-0.504,0.007
						c0.027-0.025,0.157,0.017,0.234,0.013c-0.189-0.055,0.32-0.022,0.018-0.088c0.104,0.09,0.434,0.06,0.711,0.103
						c-0.149-0.071,0.199,0.023,0.207-0.03c-0.148-0.07-0.261-0.151-0.312-0.219c0.275-0.045,0.032-0.192,0.031-0.262
						c0.146-0.018,0.459,0.048,0.519,0.018c0.001-0.045-0.345-0.012-0.19-0.059l0.062,0.015c-0.07-0.031,0.231-0.091-0.219-0.175
						l0.339,0.069c0.033-0.007-0.044-0.03-0.079-0.045l0.285,0.046c0.24-0.006-0.025-0.089-0.029-0.134l-0.205-0.002
						c-0.147-0.1,0.06-0.12,0-0.204l0.196,0.034l-0.111-0.062c0.189,0.042,0.317,0.023,0.161-0.026l0.467,0.189
						c-0.121,0.012-0.233-0.071-0.43-0.083c-0.173-0.011-0.129,0.065,0.06,0.105c0.025-0.022-0.018-0.03-0.086-0.061
						c0.275,0.035,0.26,0.072,0.44,0.119c-0.01-0.015,0.076-0.02-0.01-0.037c0.13,0.046,0.146,0.075,0.147,0.119l-0.249-0.033
						c0.241,0.04,0.311,0.091,0.235,0.133c-0.286-0.002,0.166,0.124,0.079,0.172c-0.242-0.058-0.434-0.117-0.527-0.168
						c-0.129,0.022,0,0.044-0.129,0.066c0.181,0.044,0.459,0.095,0.563,0.16l-0.182-0.021c0.086,0.058,0.354,0.092,0.295,0.142
						c-0.103,0.086-0.117,0.187-0.15,0.259l-0.182-0.017c0.382,0.083,0.123,0.154,0.287,0.227c-0.188,0.079,0.144,0.22-0.177,0.242
						c0.12,0.18,0.284,0.316,0.218,0.478l-0.267-0.034c0.196,0.035-0.151,0.017-0.111,0.048c0.211-0.031,0.277,0.045,0.44,0.066
						c-0.203,0.072,0.025,0.167,0.214,0.222l-0.183,0.007c0.346,0.053,0.048,0.136-0.006,0.221c-0.075,0.014-0.246,0.04-0.225,0.063
						c0.296,0.024,0.275,0.048,0.462,0.094c0.001,0.044-0.069,0.125-0.183,0.185c0.411,0.102,0.162,0.355,0.429,0.567l-0.212,0.039
						c0.472,0.182,0.074,0.495,0.321,0.674l-0.368-0.005c-0.109,0.062,0.104,0.131,0.363,0.11c-0.109,0.062,0.187,0.151-0.113,0.191
						c-0.067,0.055,0.17,0.065,0.219,0.11c-0.139,0.109-0.107,0.149-0.039,0.25l0.022-0.025c-0.081-0.01-0.236-0.01-0.26,0.016
						c0.102,0.037-0.099,0.141,0.339,0.099c-0.253,0.111,0.205,0.251-0.136,0.361c0.119-0.01,0.142,0.016,0.223,0.026
						c0.005,0.095-0.239,0.199-0.035,0.272c-0.061,0.016-0.204-0.021-0.217,0.018l0.224,0.026c0.23,0.126-0.208,0.26-0.142,0.378
						c0.249,0.182,0.142,0.402,0.197,0.583l-0.087,0.014c0.348-0.021-0.29,0.188,0.217,0.112c-0.077,0.031-0.023,0.051-0.19,0.086
						c0.242-0.028-0.175,0.175,0.131,0.141l-0.05,0.001c-0.164,0.122,0.101,0.082-0.046,0.208l-0.147,0.037
						c-0.147,0.092,0.358-0.085-0.026,0.097c0.008,0.014,0.197-0.075,0.185-0.079c-0.139,0.175,0.229,0.327,0.422,0.532
						c-0.157,0.277-0.648,0.3-0.302,0.307c-0.07,0.043,0.152-0.056,0.072-0.02c0.132,0.006-0.401,0.264-0.183,0.213
						c0.233-0.115,0.145-0.032,0.291-0.091c-0.111,0.169-0.322,0.273-0.104,0.282l-0.13,0.043c0.4-0.043,0.252,0.14,0.708,0.075
						c0.236,0.479,0.649,1.001,0.815,1.406c0.036,0.494,0.354,0.811,0.27,1.219c-0.301,0.223-0.287,0.231-0.119,0.267l-0.116,0.048
						c0.271-0.117,0.051,0.057,0.309-0.053c-0.003,0.115,0.144,0.191,0.203,0.297c-0.037-0.001-0.25,0.111-0.221,0.125l0.175-0.074
						l-0.069,0.047l0.252-0.133c0.358,0.082,0.074,0.721,0.328,0.805c-0.034,0.127,0.1,0.093,0.173,0.081
						c-0.113,0.439-0.009,0.725,0.201,0.576C238.804,33.823,238.664,34.564,238.495,34.687z"/>
					<path fill="#571C05" d="M234.842,20.758c-0.147-0.013-0.232,0.014-0.423-0.05L234.842,20.758z"/>
					<path fill="#571C05" d="M233.179,21.655c0.044,0.006-0.062,0.01-0.085,0.011c-0.01-0.015-0.131-0.042-0.054-0.045
						C233.049,21.637,233.119,21.642,233.179,21.655z"/>
					<path fill="#571C05" d="M233.05,21.941c-0.13-0.016-0.225-0.089-0.235-0.128L233.05,21.941z"/>
					<path fill="#571C05" d="M232.48,22.184c-0.109,0.02-0.17,0.009-0.167-0.029L232.48,22.184z"/>
					<path fill="#571C05" d="M232.779,22.227c0.004,0.026-0.072,0.034-0.147,0.042C232.744,22.274,232.56,22.203,232.779,22.227z"/>
					<path fill="#571C05" d="M232.416,22.9c0.012,0.017,0.121,0.051-0.023,0.069C232.493,22.95,232.224,22.889,232.416,22.9z"/>
					<path fill="#571C05" d="M232.626,23.216l0.005,0.026c-0.06,0.021-0.155,0.006-0.169-0.009L232.626,23.216z"/>
					<polygon fill="#571C05" points="233.528,28.21 233.455,28.194 233.581,28.163 					"/>
					<path fill="#571C05" d="M234.292,30.209c0.086,0-0.111,0.057-0.129,0.067C234.144,30.257,234.319,30.233,234.292,30.209z"/>
					<polygon fill="#571C05" points="235.23,31.076 235.225,31.068 235.484,31 					"/>
				</g>
			</g>
		</g>
	</g>
</g>
</svg>
